<svg xmlns="http://www.w3.org/2000/svg" viewBox="0 0 68.28 68.89"><defs><style>.cls-1{fill:none;}.cls-1,.cls-2{stroke:#fff;stroke-linecap:round;stroke-linejoin:round;stroke-width:3px;}.cls-2{fill:#fff;}</style></defs><title>Asset 8</title><g id="Layer_2" data-name="Layer 2"><g id="Layer_1-2" data-name="Layer 1"><polyline class="cls-1" points="61.62 56.84 66.78 54.96 66.78 1.5 45.02 9.46 23.26 1.5 1.5 9.46 1.5 62.91 23.26 54.96 45.02 62.91 54.45 59.48"/><circle class="cls-1" cx="44.55" cy="35.87" r="12.41"/><line class="cls-1" x1="51.43" y1="47.33" x2="54.14" y2="51.86"/><rect class="cls-1" x="55.06" y="51.25" width="6.75" height="15.51" transform="translate(-22.04 38.49) rotate(-30.97)"/><rect class="cls-1" x="8.15" y="8.63" width="2.87" height="2.39"/><rect class="cls-1" x="30.32" y="16.24" width="2.87" height="2.39"/><rect class="cls-1" x="56.76" y="13.06" width="2.87" height="2.39"/><rect class="cls-1" x="7.83" y="42.52" width="2.87" height="2.39"/><rect class="cls-2" x="40.1" y="32" width="5" height="4.16"/><path class="cls-1" d="M2.24,36.8c3.44-.66,4.46-6.55,7.86-9,2.94-2.13,6.71-.66,8.34-5.08,1.06-2.85-2-7.64.17-9.82,1.69-1.74,7.85,1.8,8.51-3.11.46-3.44,9,1.64,8-.33a15.08,15.08,0,0,1-.82-3.76"/><path class="cls-1" d="M15.19,57c3.54-3.08,4-10.43,7.91-9.8,1.87.3,3.93,3.51,7,1.28,1.26-.91,4.65,2.74,7.34,4.53,2.08,1.39,3.78,7.3,3.78,7.3"/></g></g></svg>