<svg xmlns="http://www.w3.org/2000/svg" viewBox="0 0 74.98 96.04"><defs><style>.cls-1{fill:none;stroke:#fff;stroke-linecap:round;stroke-linejoin:round;stroke-width:3px;}</style></defs><title>Asset 9</title><g id="Layer_2" data-name="Layer 2"><g id="Layer_1-2" data-name="Layer 1"><path class="cls-1" d="M49.9,64.39A29.64,29.64,0,1,1,66,31.72"/><polyline class="cls-1" points="54.97 39.51 46.58 47.79 54.97 56.83"/><polyline class="cls-1" points="62.91 39.51 71.3 47.79 62.91 56.83"/><line class="cls-1" x1="17.99" y1="60.44" x2="13.86" y2="65.6"/><line class="cls-1" x1="59.14" y1="8.94" x2="55.14" y2="13.95"/><path class="cls-1" d="M59.7,66.48A36.4,36.4,0,0,1,1.5,45.23"/><path class="cls-1" d="M21.32,5.12A36.41,36.41,0,0,1,73.48,35.58"/><path class="cls-1" d="M36.64,78.32v0Z"/><ellipse class="cls-1" cx="36.6" cy="85.31" rx="12.59" ry="2.85"/><path class="cls-1" d="M49.2,91.69c0,1.57-5.64,2.85-12.6,2.85S24,93.26,24,91.69"/><line class="cls-1" x1="23.88" y1="91.6" x2="23.88" y2="85.57"/><line class="cls-1" x1="49.23" y1="91.36" x2="49.23" y2="85.8"/><path class="cls-1" d="M25.54,23.76c-4.89,0,0,9-6,9h0c6.46,0,1.84,8.7,5.95,8.7"/><path class="cls-1" d="M35.62,23.76c4.89,0,0,9,6,9h0c-6.46,0-1.84,8.7-6,8.7"/></g></g></svg>